<?xml version="1.0" encoding="UTF-8" standalone="no"?>
<!DOCTYPE svg PUBLIC "-//W3C//DTD SVG 1.1//EN" "http://www.w3.org/Graphics/SVG/1.1/DTD/svg11.dtd">
<svg width="100%" height="100%" viewBox="0 0 341 113" version="1.1" xmlns="http://www.w3.org/2000/svg" xmlns:xlink="http://www.w3.org/1999/xlink" xml:space="preserve" xmlns:serif="http://www.serif.com/" style="fill-rule:evenodd;clip-rule:evenodd;stroke-linejoin:round;stroke-miterlimit:2;">
    <g id="Layer-1" serif:id="Layer 1" transform="matrix(1,0,0,1,-4.02189,-3.9007)">
        <g transform="matrix(1,0,0,1,340.879,112.413)">
            <path d="M-33.446,-108.944L-42.051,-108.046L-44.963,-107.746L-61.024,-106.082L-89.614,-103.112L-99.358,-102.105L-103.42,-101.683L-139.622,-97.926L-139.649,-97.693L-139.797,-97.908L-182.022,-93.527L-182.022,-93.531L-227.43,-88.817L-267.041,-84.707L-336.77,-77.471L-330.977,-60.696L-334.36,-40.993L-332.314,-38.484L-328.544,-34.072L-335.404,-33.1L-340.879,0L-288.7,-8.179L-283.311,-14.146L-284.124,-8.896L-253.617,-13.68L-250.555,-35.097L-236.822,-31.994L-235.175,-33.808L-232.143,-30.949L-221.811,-18.668L-189.047,-23.805L-188.53,-24.448L-188.602,-23.872L-160.835,-28.231L-135.263,-32.237L-105.459,-36.91L-65.681,-43.146L-41.172,-46.992L-17.054,-50.772L-12.842,-87.605L-3.356,-88.693L0,-112.413L-33.446,-108.944Z" style="fill:rgb(8,43,71);fill-rule:nonzero;"/>
        </g>
        <g transform="matrix(1,0,0,1,90.352,77.959)">
            <path d="M0,-36.168L12.982,-37.655L10.543,-23.222L-2.172,-21.597L0,-36.168ZM22.141,-50.036L-18.581,-45.813L-15.176,-34.798L-17.864,-17.499L-18.55,-13.097L-22.738,13.868L-7.041,11.407L-3.961,-10.115L16.649,-12.95L21.829,-18.674L24.802,-21.962L24.829,-22.149L27.713,-42.51L22.141,-50.036Z" style="fill:white;fill-rule:nonzero;"/>
        </g>
        <g transform="matrix(1,0,0,1,180.491,64.2648)">
            <path d="M0,-32.777L11.834,-34.13L9.938,-20.93L-1.304,-19.497L0,-32.777ZM20.494,-17.81L21.955,-19.635L24.513,-38.011L19.457,-45.412L-14.837,-41.856L-12.02,-33.476L-14.41,-14.005L-14.606,-12.403L-17.672,12.635L-4.477,10.566L-1.993,-8.874L0.592,-9.23L7.477,8.692L21.625,6.472L15.448,-11.5L19.991,-17.178L20.494,-17.81Z" style="fill:white;fill-rule:nonzero;"/>
        </g>
        <g transform="matrix(1,0,0,1,246.095,68.52)">
            <path d="M0,-54.456L-0.503,-44.478L-12.248,-43.129L-14.668,-25.71L-14.713,-25.377L-17.98,-1.86L-29.84,0L-26.649,-24.05L-26.644,-24.077L-24.299,-41.754L-37.353,-40.263L-36.111,-50.708L0,-54.456Z" style="fill:white;fill-rule:nonzero;"/>
        </g>
        <g transform="matrix(1,0,0,1,273.479,35.2447)">
            <path d="M0,3.31L6.577,23.271L-5.555,25.175L-11.429,6.185L-13.908,6.724L-15.964,26.809L-27.429,28.607L-24.433,5.971L-24.322,5.117L-22.079,-11.866L-24.656,-21.465L-9.809,-23.005L-12.332,-3.263L-9.845,-3.575L-0.147,-24.007L12.274,-25.297L-1.011,0.262L-0.49,1.828L0,3.31Z" style="fill:rgb(234,96,54);fill-rule:nonzero;"/>
        </g>
        <g transform="matrix(-0.12976,0.991545,0.991545,0.12976,293.342,60.4792)">
            <path d="M-9.833,1.634L-4.246,1.634L-1.435,-8.63L-7.341,-8.568C-8.176,-5.164 -8.998,-1.766 -9.833,1.634" style="fill:rgb(234,96,54);fill-rule:nonzero;"/>
        </g>
        <g transform="matrix(-0.133366,0.991067,0.991067,0.133366,316.88,57.0163)">
            <path d="M-8.939,1.616L-4.035,1.616L-1.413,-7.816L-6.597,-7.813C-7.375,-4.666 -8.157,-1.524 -8.939,1.616" style="fill:rgb(234,96,54);fill-rule:nonzero;"/>
        </g>
        <g transform="matrix(-0.130724,0.991419,0.991419,0.130724,293.333,54.7109)">
            <path d="M-8.912,2.389L-4.59,2.389C-3.759,-1.008 -2.926,-4.408 -2.094,-7.814L-6.419,-7.774C-7.251,-4.382 -8.084,-0.999 -8.912,2.389" style="fill:rgb(234,96,54);fill-rule:nonzero;"/>
        </g>
        <g transform="matrix(-0.135062,0.990837,0.990837,0.135062,317.158,51.7288)">
            <path d="M-8.458,2.042L-4.142,2.042C-3.353,-1.098 -2.571,-4.238 -1.783,-7.383L-6.103,-7.388C-6.892,-4.244 -7.675,-1.099 -8.458,2.042" style="fill:rgb(234,96,54);fill-rule:nonzero;"/>
        </g>
        <g transform="matrix(-0.129869,0.991531,0.991531,0.129869,294.557,44.9081)">
            <path d="M-8.722,2.456L-4.61,2.456C-3.788,-0.911 -2.969,-4.282 -2.155,-7.654L-6.28,-7.615C-7.098,-4.252 -7.914,-0.899 -8.722,2.456" style="fill:rgb(234,96,54);fill-rule:nonzero;"/>
        </g>
        <g transform="matrix(-0.134493,0.990914,0.990914,0.134493,318.363,41.9997)">
            <path d="M-8.332,2.155L-4.227,2.155C-3.446,-0.985 -2.664,-4.127 -1.882,-7.277L-5.996,-7.278C-6.773,-4.132 -7.55,-0.99 -8.332,2.155" style="fill:rgb(234,96,54);fill-rule:nonzero;"/>
        </g>
        <g transform="matrix(-0.129254,0.991611,0.991611,0.129254,293.863,49.7781)">
            <path d="M-8.706,2.513L-4.675,2.513C-3.848,-0.87 -3.026,-4.255 -2.207,-7.645L-6.248,-7.606C-7.069,-4.23 -7.886,-0.858 -8.706,2.513" style="fill:rgb(234,96,54);fill-rule:nonzero;"/>
        </g>
        <g transform="matrix(-0.134781,0.990875,0.990875,0.134781,317.666,46.8346)">
            <path d="M-8.286,2.193L-4.257,2.193C-3.48,-0.944 -2.693,-4.088 -1.915,-7.235L-5.939,-7.234C-6.721,-4.088 -7.503,-0.948 -8.286,2.193" style="fill:rgb(234,96,54);fill-rule:nonzero;"/>
        </g>
        <g transform="matrix(0.415802,0.909455,0.909455,-0.415802,288.863,30.4281)">
            <path d="M5.397,-3.467C6.486,-0.189 7.575,3.082 8.665,6.353L5.397,8.402C4.312,5.143 3.222,1.879 2.136,-1.388L5.397,-3.467Z" style="fill:rgb(234,96,54);fill-rule:nonzero;"/>
        </g>
        <g transform="matrix(0.431615,0.902058,0.902058,-0.431615,312.777,28.2034)">
            <path d="M5.088,-3.206C6.163,-0.148 7.241,2.906 8.312,5.958L5.088,8.075C4.009,5.024 2.935,1.972 1.856,-1.086L5.088,-3.206Z" style="fill:rgb(234,96,54);fill-rule:nonzero;"/>
        </g>
        <g transform="matrix(0.406565,0.913622,0.913622,-0.406565,289.66,25.4558)">
            <path d="M5.364,-3.484C6.417,-0.212 7.47,3.06 8.523,6.326L5.364,8.258C4.314,5.005 3.263,1.745 2.213,-1.515L5.364,-3.484Z" style="fill:rgb(234,96,54);fill-rule:nonzero;"/>
        </g>
        <g transform="matrix(0.420547,0.907271,0.907271,-0.420547,313.563,23.2069)">
            <path d="M5.08,-3.244C6.119,-0.171 7.154,2.894 8.194,5.96L5.08,7.953C4.037,4.886 2.999,1.821 1.956,-1.252L5.08,-3.244Z" style="fill:rgb(234,96,54);fill-rule:nonzero;"/>
        </g>
        <g transform="matrix(0.388306,0.921531,0.921531,-0.388306,291.234,15.6392)">
            <path d="M5.297,-3.516C6.28,-0.261 7.264,2.998 8.244,6.251L5.297,7.98C4.317,4.735 3.339,1.487 2.36,-1.761L5.297,-3.516Z" style="fill:rgb(234,96,54);fill-rule:nonzero;"/>
        </g>
        <g transform="matrix(1,0,0,1,314.516,18.1839)">
            <path d="M0,-2.136L0.014,-2.136L-0.221,-0.402L-0.428,1.137C2.792,0.795 6.014,0.451 9.233,0.106L9.393,-1.074L9.684,-3.273C6.464,-2.932 3.24,-2.587 0.014,-2.243L0,-2.136Z" style="fill:rgb(234,96,54);fill-rule:nonzero;"/>
        </g>
        <g transform="matrix(0.394159,0.919042,0.919042,-0.394159,290.489,20.51)">
            <path d="M5.326,-3.511C6.333,-0.241 7.337,3.024 8.345,6.287L5.325,8.079C4.325,4.827 3.321,1.57 2.319,-1.688L5.326,-3.511Z" style="fill:rgb(234,96,54);fill-rule:nonzero;"/>
        </g>
        <g transform="matrix(0.406473,0.913663,0.913663,-0.406473,314.375,18.246)">
            <path d="M5.066,-3.291C6.058,-0.206 7.052,2.875 8.046,5.959L5.066,7.799C4.071,4.72 3.078,1.637 2.078,-1.447L5.066,-3.291Z" style="fill:rgb(234,96,54);fill-rule:nonzero;"/>
        </g>
        <g transform="matrix(0.376312,0.926493,0.926493,-0.376312,291.647,10.9298)">
            <path d="M5.135,-3.269C6.09,0.051 7.044,3.37 8.002,6.686L5.135,8.315C4.073,4.622 3.01,0.927 1.947,-2.775L5.135,-3.269Z" style="fill:rgb(234,96,54);fill-rule:nonzero;"/>
        </g>
        <g transform="matrix(0.205406,0.978677,0.978677,-0.205406,313.026,-2.29152)">
            <path d="M15.535,-12.613C16.573,-2.406 17.605,7.772 18.636,17.936L15.535,19.134C14.503,8.934 13.466,-1.289 12.426,-11.533L15.535,-12.613Z" style="fill:rgb(234,96,54);fill-rule:nonzero;"/>
        </g>
        <g transform="matrix(0.304953,0.952367,0.952367,-0.304953,291.626,5.04629)">
            <path d="M6.025,-4.263C6.85,-0.281 7.678,3.69 8.497,7.663L6.025,8.827L3.427,-4.062L6.025,-4.263Z" style="fill:rgb(234,96,54);fill-rule:nonzero;"/>
        </g>
        <g transform="matrix(-0.125779,0.992058,0.992058,0.125779,321.676,-7.76691)">
            <path d="M17.52,-14.734L20.271,-14.734C17.897,-4.692 15.535,5.332 13.178,15.332L10.233,15.439L17.52,-14.734Z" style="fill:rgb(234,96,54);fill-rule:nonzero;"/>
        </g>
        <g transform="matrix(1,0,0,1,49.1367,80.9588)">
            <path d="M0,-28.638L0.378,-34.126L-12.662,-32.626L-14.518,-20.245L7.454,-23L10.609,-19.11L13.601,-15.425L13.52,-14.833L10.965,3.342L1.802,13.485L-20.067,16.912L-38.177,19.751L-35.154,1.5L-18.479,-0.859L-19.297,4.219L-18.149,4.054L-4.842,2.114L-3.667,-10.307L-16.253,-8.603L-26.356,-7.236L-27.954,-9.105L-32.498,-14.411L-32.582,-14.513L-32.725,-14.682L-29.578,-32.995L-33.041,-43.036L-19.84,-44.407L-10.766,-45.345L18.544,-48.389L15.67,-30.695L0,-28.638Z" style="fill:white;fill-rule:nonzero;"/>
        </g>
        <g transform="matrix(1,0,0,1,146.73,51.6438)">
            <path d="M0,2.866L-1.865,16.867L-13.868,18.621L-12.158,6.965L-12.154,6.965L-11.762,4.491L-11.362,1.963L-8.634,-15.309L2.594,-16.591L0.289,0.694L0,2.866ZM11.18,-28.434L-7.112,-26.538L-14.29,-25.79L-14.656,-25.755L-25.599,-24.615L-22.906,-16.075L-25.461,3.498L-25.844,6.44L-28.198,24.477L-22.462,31.3L3.623,27.21L11.251,17.673L13.463,1.01L13.698,-0.77L16.431,-21.38L11.18,-28.434Z" style="fill:white;fill-rule:nonzero;"/>
        </g>
        <g transform="matrix(1,0,0,1,59.7465,100.71)">
            <path d="M0,-38.861L2.99,-35.176L2.91,-34.584L0.356,-16.408L-8.808,-6.266L-30.677,-2.839L-48.786,0L-45.764,-18.251L-29.088,-20.61L-29.907,-15.532L-28.759,-15.696L-15.452,-17.637L-14.277,-30.058L-26.864,-28.353L-36.966,-26.988L-38.563,-28.856L-43.107,-34.161L0,-38.861Z" style="fill:rgb(204,204,204);fill-rule:nonzero;"/>
        </g>
        <g transform="matrix(1,0,0,1,72.4877,87.177)">
            <path d="M0,-26.717L42.693,-31.367L42.667,-31.18L39.693,-27.891L34.513,-22.168L13.903,-19.333L10.823,2.189L-4.873,4.65L-0.686,-22.315L0,-26.717Z" style="fill:rgb(204,204,204);fill-rule:nonzero;"/>
        </g>
        <g transform="matrix(1,0,0,1,160.429,82.944)">
            <path d="M0,-32.07L-0.236,-30.29L-2.448,-13.627L-10.077,-4.09L-36.161,0L-41.897,-6.823L-39.543,-24.86L-39.16,-27.802L-25.061,-29.338L-25.462,-26.809L-25.853,-24.335L-25.857,-24.335L-27.567,-12.679L-15.564,-14.433L-13.699,-28.434L-13.409,-30.606L0,-32.07Z" style="fill:rgb(204,204,204);fill-rule:nonzero;"/>
        </g>
        <g transform="matrix(1,0,0,1,195.939,70.5897)">
            <path d="M0,-17.825L6.177,0.146L-7.971,2.367L-14.856,-15.555L-17.441,-15.199L-19.925,4.241L-33.12,6.31L-30.054,-18.728L-29.858,-20.33L5.046,-24.135L4.543,-23.503L0,-17.825Z" style="fill:rgb(204,204,204);fill-rule:nonzero;"/>
        </g>
        <g transform="matrix(1,0,0,1,219.45,67.2209)">
            <path d="M0,-22.778L11.932,-24.077L8.665,-0.561L-3.195,1.299L-0.004,-22.751L0,-22.778Z" style="fill:rgb(204,204,204);fill-rule:nonzero;"/>
        </g>
        <g transform="matrix(1,0,0,1,273.479,63.8517)">
            <path d="M0,-25.297L6.577,-5.336L-5.555,-3.432L-11.429,-22.422L-13.908,-21.883L-15.964,-1.798L-27.429,0L-24.433,-22.636L0,-25.297Z" style="fill:rgb(204,78,50);fill-rule:nonzero;"/>
        </g>
        <g transform="matrix(-0.412021,0.911174,0.911174,0.412021,294.726,51.028)">
            <path d="M4.645,-7.697C2.857,-4.682 1.084,-1.669 -0.703,1.342L4.645,2.965L10.315,-6.042L4.645,-7.697Z" style="fill:rgb(204,78,50);fill-rule:nonzero;"/>
        </g>
        <g transform="matrix(-0.304319,0.95257,0.95257,0.304319,294.348,44.7122)">
            <path d="M4.894,-6.712C3.473,-3.522 2.055,-0.339 0.639,2.848L4.894,3.613C6.312,0.417 7.736,-2.78 9.157,-5.985L4.894,-6.712Z" style="fill:rgb(204,78,50);fill-rule:nonzero;"/>
        </g>
        <g transform="matrix(-0.279876,0.960036,0.960036,0.279876,294.772,39.7385)">
            <path d="M4.888,-6.537C3.558,-3.327 2.234,-0.12 0.905,3.085L4.888,3.703C6.224,0.487 7.556,-2.731 8.886,-5.956L4.888,-6.537Z" style="fill:rgb(204,78,50);fill-rule:nonzero;"/>
        </g>
        <g transform="matrix(-0.290366,0.956916,0.956916,0.290366,295.521,34.9554)">
            <path d="M4.854,-6.571C3.497,-3.388 2.143,-0.214 0.797,2.964L4.854,3.636C6.216,0.45 7.575,-2.742 8.93,-5.936L4.854,-6.571Z" style="fill:rgb(204,78,50);fill-rule:nonzero;"/>
        </g>
        <g transform="matrix(-0.388515,0.921443,0.921443,0.388515,318.115,48.1343)">
            <path d="M4.346,-6.955C2.77,-4.123 1.192,-1.296 -0.386,1.53L4.346,2.815L9.348,-5.601L4.346,-6.955Z" style="fill:rgb(204,78,50);fill-rule:nonzero;"/>
        </g>
        <g transform="matrix(-0.333987,0.942578,0.942578,0.333987,318.239,42.5513)">
            <path d="M4.541,-6.43C3.129,-3.511 1.721,-0.592 0.315,2.324L4.541,3.203C5.951,0.289 7.358,-2.626 8.769,-5.545L4.541,-6.43Z" style="fill:rgb(204,78,50);fill-rule:nonzero;"/>
        </g>
        <g transform="matrix(-0.306719,0.9518,0.9518,0.306719,318.65,37.5541)">
            <path d="M4.559,-6.254C3.237,-3.295 1.914,-0.341 0.593,2.614L4.559,3.322C5.875,0.37 7.202,-2.587 8.521,-5.547L4.559,-6.254Z" style="fill:rgb(204,78,50);fill-rule:nonzero;"/>
        </g>
        <g transform="matrix(-0.134493,0.990914,0.990914,0.134493,318.363,41.9997)">
            <path d="M-8.332,2.155L-4.227,2.155C-3.446,-0.985 -2.664,-4.127 -1.882,-7.277L-5.996,-7.278C-6.773,-4.132 -7.55,-0.99 -8.332,2.155" style="fill:rgb(204,78,50);fill-rule:nonzero;"/>
        </g>
        <g transform="matrix(1,0,0,1,252.11,90.1086)">
            <path d="M0,10.931C-0.974,18.022 -5.59,19.47 -11.901,20.406L-22.913,22.04L-21.642,12.576L-13.468,11.363L-13.638,12.912C-13.638,13.802 -13.044,13.756 -12.155,13.624L-10.842,13.429C-9.826,13.279 -9.106,13.087 -8.894,11.742L-8.725,10.362C-8.725,9.134 -10.25,9.232 -11.435,9.197L-15.035,9.096C-18.381,8.999 -20.499,7.874 -20.499,4.4C-20.499,4.019 -20.499,3.553 -20.414,3.075L-19.948,-0.341C-19.059,-6.784 -15.247,-8.494 -8.301,-9.525L2.372,-11.109L1.059,-1.468L-6.903,-0.286L-6.692,-1.927C-6.692,-2.859 -7.284,-2.856 -8.174,-2.724L-9.529,-2.523C-10.503,-2.378 -11.223,-2.187 -11.393,-0.848L-11.605,0.75C-11.605,1.639 -10.842,1.866 -10.038,1.831L-3.685,1.735C-0.847,1.695 0.635,2.958 0.635,5.584C0.635,6.008 0.593,6.438 0.551,6.868L0,10.931Z" style="fill:white;fill-rule:nonzero;"/>
        </g>
        <g transform="matrix(1,0,0,1,263.633,80.4631)">
            <path d="M0,26.575C-6.353,27.518 -7.92,26.395 -7.92,23.133C-7.92,22.286 -7.793,21.251 -7.623,20.039L-6.437,11.434L-8.301,11.711L-7.623,6.824L-5.76,6.547L-5.125,1.878L-0.339,-0.484L2.753,-0.943L1.906,5.409L4.743,4.988L4.065,9.875L1.101,10.315L-0.127,19.393C-0.127,20.113 0.339,20.171 1.313,20.027L2.922,19.788L2.033,26.273L0,26.575Z" style="fill:white;fill-rule:nonzero;"/>
        </g>
        <g transform="matrix(1,0,0,1,280.788,93.1536)">
            <path d="M0,2.74C-0.297,2.445 -0.847,2.442 -1.779,2.58C-3.219,2.794 -3.981,3.373 -3.981,5.66C-3.981,6.677 -3.473,6.813 -2.33,6.644C-1.398,6.505 -0.805,6.332 -0.424,5.937L0,2.74ZM-0.127,11.357L0.042,9.511C-1.652,11.16 -3.473,12.278 -6.819,12.774C-10.334,13.296 -12.028,12.615 -12.028,8.93C-12.028,8.21 -11.943,7.308 -11.816,6.315C-10.969,0.302 -9.148,-0.35 -4.913,-0.979C-2.88,-1.281 -1.229,-1.144 0.466,-0.634L0.763,-3.177C0.763,-4.066 0.423,-4.609 -0.508,-4.47C-1.736,-4.288 -2.372,-3.812 -2.541,-2.686L-9.572,-1.643L-8.64,-8.262L2.202,-9.871C6.819,-10.556 9.36,-10.129 9.36,-6.952C9.36,-6.613 9.317,-6.225 9.275,-5.838L8.004,3.373C8.004,4.136 8.344,4.254 9.233,4.122L8.428,10.088L-0.127,11.357Z" style="fill:white;fill-rule:nonzero;"/>
        </g>
        <g transform="matrix(1,0,0,1,300.951,74.9245)">
            <path d="M0,26.575C-6.353,27.518 -7.919,26.395 -7.919,23.133C-7.919,22.286 -7.792,21.251 -7.623,20.039L-6.437,11.434L-8.3,11.711L-7.623,6.824L-5.759,6.547L-5.125,1.878L-0.338,-0.484L2.753,-0.943L1.906,5.409L4.744,4.988L4.066,9.875L1.102,10.315L-0.127,19.392C-0.127,20.113 0.339,20.171 1.313,20.027L2.923,19.787L2.033,26.273L0,26.575Z" style="fill:white;fill-rule:nonzero;"/>
        </g>
        <g transform="matrix(1,0,0,1,324.375,85.2311)">
            <path d="M0,7.285C-0.678,12.342 -4.574,13.471 -9.741,14.238L-18.974,15.608L-18.126,9.171L-10.842,8.09L-10.927,8.865C-10.927,9.542 -10.418,9.509 -9.699,9.402L-8.937,9.289C-8.132,9.17 -7.539,8.997 -7.412,8.089L-7.285,6.842C-7.285,6.248 -7.75,6.063 -8.598,6.062L-12.537,6.054C-15.374,6.051 -17.237,5.269 -17.237,2.727C-17.237,2.473 -17.195,2.213 -17.152,1.91L-16.856,-0.337C-16.263,-4.915 -13.044,-6.155 -7.285,-7.01L1.567,-8.323L0.678,-1.923L-6.183,-0.904L-6.099,-1.552C-6.099,-2.272 -6.565,-2.33 -7.243,-2.23L-8.005,-2.116C-8.809,-1.997 -9.444,-1.818 -9.571,-0.867L-9.741,0.344C-9.741,0.937 -9.36,1.092 -8.555,1.057L-3.304,0.956C-0.805,0.924 0.423,1.758 0.423,3.706C0.423,3.961 0.423,4.215 0.381,4.475L0,7.285Z" style="fill:white;fill-rule:nonzero;"/>
        </g>
    </g>
</svg>
